<svg width="256" height="256" viewBox="0 0 256 256" fill="none" xmlns="http://www.w3.org/2000/svg">
<path d="M73.18 97.4447C62.5725 91.1603 51.9443 87.2154 43.5591 87.7371C34.8824 88.2769 27.949 93.8523 27.949 107.328C27.949 119.267 31.9483 131.113 39.5375 141.853C46.3824 151.54 55.1569 158.89 63.4813 164.767L63.5249 164.797L63.565 164.825L76.1224 173.571C76.1711 173.605 76.2198 173.638 76.2686 173.672C85.6826 180.073 91.5113 185.27 94.8001 189.538C96.2545 191.425 97.0156 192.883 97.4737 194.118C97.9411 195.379 98.4064 197.257 98.4064 200.002C98.4064 204.791 96.9626 206.587 94.2083 207.034C90.7748 207.592 84.5733 206.013 74.7762 200.357C65.8822 195.222 56.8359 189.175 50.7529 182.768C47.8642 179.725 46.5274 177.515 45.931 176.107C45.4799 175.041 44.8214 172.993 45.4144 169.531C46.4312 163.595 42.6763 155.188 37.0275 150.753C31.3788 146.317 25.9753 147.533 24.9586 153.469C23.6031 161.382 24.6766 170.084 28.4802 179.068C32.1386 187.71 37.5792 194.851 42.8327 200.384C53.0341 211.129 65.7312 219.135 74.7762 224.357C86.3823 231.058 97.1921 235.052 105.419 233.717C114.325 232.271 119.191 224.712 119.191 212.002C119.191 205.997 118.141 199.688 115.726 193.175C113.302 186.637 109.814 180.734 105.802 175.527C98.1756 165.631 88.2295 157.716 78.1832 150.879L65.7408 142.213C58.5011 137.098 54.1423 132.869 51.7439 129.475C50.0851 127.127 48.7336 124.386 48.7336 119.328C48.7336 116.804 49.6873 114.791 53.6297 114.546C57.8638 114.283 64.587 116.356 72.9084 121.286C81.9366 126.634 88.6803 131.884 92.8376 136.69C94.7579 138.91 95.7656 140.623 96.3217 141.914C96.8375 143.111 97.3548 144.838 97.3548 147.399C97.3548 154.026 102.008 162.085 107.747 165.399C113.487 168.713 118.139 166.026 118.139 159.399C118.139 152.711 116.685 145.71 113.652 138.669C110.659 131.722 106.54 125.685 102.15 120.611C93.6884 110.828 83.0806 103.31 73.18 97.4447Z" fill="#4582fa"/>
<path fill-rule="evenodd" clip-rule="evenodd" d="M157.022 169.874C155.758 165.738 155.125 163.67 154.317 164.099C154.179 164.172 154.036 164.279 153.904 164.407C153.139 165.151 153.134 167.694 153.123 172.781C153.115 176.612 153.115 180.738 153.115 185.177V226.42C153.115 233.047 148.462 241.106 142.722 244.42C136.983 247.733 132.33 245.047 132.33 238.42L132.33 196.642C132.33 179.356 132.33 165.744 132.878 155.839C133.152 150.882 133.595 146.129 134.448 141.911C135.127 138.551 136.829 131.399 142.032 125.189C145.796 120.698 150.141 117.459 154.32 116.029C160.099 114.052 163.254 117.584 164.638 119.406C166.375 121.693 167.91 124.972 169.358 128.645C172.251 135.985 175.611 147.091 179.88 161.196L180.012 161.632C180.541 163.38 181.03 164.993 181.486 166.48C182.19 168.777 182.543 169.926 183.238 169.659C183.36 169.612 183.491 169.537 183.613 169.443C184.309 168.907 184.661 167.351 185.366 164.24C185.822 162.226 186.31 160.049 186.839 157.69L186.971 157.102C191.24 138.068 194.601 123.081 197.493 112.401C198.941 107.056 200.476 102.004 202.214 97.7111C203.598 94.2913 206.752 87.1167 212.531 82.4208C216.71 79.0249 221.056 77.2466 224.819 77.3922C230.022 77.5935 231.724 82.7807 232.403 85.356C233.256 88.5891 233.699 92.8316 233.973 97.4717C234.521 106.744 234.521 120.356 234.521 137.643V179.42C234.521 186.047 229.868 194.106 224.129 197.42C218.389 200.734 213.737 198.047 213.737 191.42V150.177C213.737 145.738 213.736 141.613 213.728 137.791C213.717 132.716 213.712 130.179 212.947 130.318C212.816 130.342 212.673 130.401 212.534 130.487C211.726 130.992 211.094 133.79 209.829 139.387C208.876 143.602 207.857 148.144 206.761 153.031L206.597 153.762C204.418 163.484 202.557 171.781 200.702 178.095C199.741 181.364 198.551 184.925 196.959 188.34C195.331 191.83 192.805 196.189 189.026 199.771C185.384 203.223 181.467 205.485 177.825 206.238C174.047 207.019 171.52 205.578 169.892 203.967C168.3 202.391 167.11 200.204 166.149 198.044C164.294 193.872 162.434 187.723 160.254 180.518L160.09 179.977C158.994 176.355 157.975 172.99 157.022 169.874ZM146.487 141.713C146.484 141.743 146.49 141.682 146.487 141.713V141.713ZM220.364 99.0598C220.361 99.0327 220.367 99.0869 220.364 99.0598V99.0598ZM212.086 102.448C212.096 102.415 212.076 102.48 212.086 102.448V102.448ZM154.765 135.542C154.775 135.563 154.755 135.521 154.765 135.542V135.542Z" fill="#ff462a"/>
<path fill-rule="evenodd" clip-rule="evenodd" d="M40.3905 60.004C34.6491 63.3144 34.6491 68.6816 40.3905 71.9919C46.132 75.3023 55.4407 75.3023 61.1821 71.9919L84.7459 58.4056C85.3679 58.047 86.3763 58.047 86.9983 58.4056L111.308 72.4222C111.612 72.5975 111.781 72.8361 111.775 73.0838L110.948 108.851C110.848 113.142 116.801 116.667 124.244 116.724C131.686 116.782 137.799 113.349 137.899 109.058L138.39 87.7983C138.407 87.0938 139.74 86.6589 140.821 86.9866C146.011 88.5586 151.555 89.6362 157.439 90.0035C171.406 90.8755 184.04 87.5681 194.595 81.4824C205.587 75.1446 211.237 67.7554 209.008 59.6185C206.974 52.1899 198.755 45.9194 189.83 40.7734L142.183 13.3011C136.441 9.99072 127.133 9.99072 121.391 13.3011L40.3905 60.004ZM143.915 67.2467L107.79 46.4177C107.168 46.0591 107.168 45.4777 107.79 45.119L130.661 31.9323C131.283 31.5737 132.291 31.5737 132.913 31.9323L169.038 52.7613C176.573 57.1058 179.4 60.2008 179.965 62.2626C180.335 63.6162 180.137 65.8424 173.803 69.4945C167.898 72.8992 163.639 73.338 160.604 73.1486C156.81 72.9117 151.199 71.4464 143.915 67.2467Z" fill="#ffc423"/>
</svg>
